<svg xmlns="http://www.w3.org/2000/svg" version="1.1" xmlns:xlink="http://www.w3.org/1999/xlink" xmlns:svgjs="http://svgjs.dev/svgjs" width="1000" height="623" viewBox="0 0 1000 623"><g transform="matrix(1,0,0,1,-0.6060606060606233,20.905711317542)"><svg xmlns="http://www.w3.org/2000/svg" version="1.1" xmlns:xlink="http://www.w3.org/1999/xlink" xmlns:svgjs="http://svgjs.com/svgjs" viewBox="0 0 396 247" data-background-color="#ffffff" preserveAspectRatio="xMidYMid meet" height="623" width="1000"><defs></defs><g id="tight-bounds" transform="matrix(1,0,0,1,0.2400000000000091,-0.09999999999999432)"><svg viewBox="0 0 395.52 247.2" height="247.2" width="395.52"><g><svg xmlns="http://www.w3.org/2000/svg" version="1.1" xmlns:xlink="http://www.w3.org/1999/xlink" xmlns:svgjs="http://svgjs.com/svgjs"></svg></g><g><svg viewBox="0 0 395.52 247.2" height="247.2" width="395.52"><g transform="matrix(2.5985723545446855, 0, 0, 2.5985723545446855, 75.62709933639977, 1)"><svg xmlns="http://www.w3.org/2000/svg" viewBox="3 2.8299170491840933 94 94.35950458380184" x="0" y="0" height="94.35950458380184" width="94" class="icon-none" data-fill-palette-color="accent" id="none"><path d="M85.38 77.77a9.7 9.7 0 0 0-9.56 8.13h-32a9.68 9.68 0 0 0-18.93-1 7.44 7.44 0 0 1 6.78-10.53h53.75L97 20.09H23.28L20.12 12A14.29 14.29 0 0 0 6.73 2.83H3v3h3.73a11.31 11.31 0 0 1 10.59 7.24l3.49 9L31.37 71.4a10.43 10.43 0 0 0-6.54 18.33 9.68 9.68 0 0 0 19-0.82h32a9.69 9.69 0 1 0 9.55-11.14Zm-50.95-6.39l-0.92-4.33h50.41L83 71.38H34.43Zm58.89-48.29l-8.76 41H32.87l-8.76-41h69.21Zm-59.09 71a6.7 6.7 0 1 1 6.7-6.7 6.71 6.71 0 0 1-6.7 6.71Zm51.15 0.06a6.7 6.7 0 1 1 6.7-6.7 6.71 6.71 0 0 1-6.7 6.72Z" fill="#ffcc33" data-fill-palette-color="accent"></path><circle cx="34.23" cy="87.4" r="1.4" fill="#ffcc33" data-fill-palette-color="accent"></circle><circle cx="85.38" cy="87.47" r="1.4" fill="#ffcc33" data-fill-palette-color="accent"></circle></svg></g><rect width="348.05760000000004" height="100.32064312465178" fill="#ffffff" y="73.4396784376741" x="23.731199999999973" data-fill-palette-color="quaternary"></rect><g transform="matrix(1,0,0,1,39.55199999999999,83.62066505906087)"><svg viewBox="0 0 316.416 79.95866988187825" height="79.95866988187825" width="316.416"><g><svg viewBox="0 0 316.416 79.95866988187825" height="79.95866988187825" width="316.416"><g><svg viewBox="0 0 316.416 79.95866988187825" height="79.95866988187825" width="316.416"><g><svg viewBox="0 0 316.416 79.95866988187825" height="79.95866988187825" width="316.416"><g><svg viewBox="0 0 316.416 43.12588582230623" height="43.12588582230623" width="316.416"><g transform="matrix(1,0,0,1,0,0)"><svg width="316.416" viewBox="2.35 -35.65 264.47999999999996 36.05" height="43.12588582230623" data-palette-color="#3f3f40"><path d="M15.55 0.4Q7.3 0.4 2.35-4.05L2.35-4.05 3.95-7.2Q6.55-5 9.28-4.05 12-3.1 15.6-3.1L15.6-3.1Q19.85-3.1 22.15-4.75 24.45-6.4 24.45-9.4L24.45-9.4Q24.45-11.15 23.35-12.25 22.25-13.35 20.45-14 18.65-14.65 15.6-15.35L15.6-15.35Q11.5-16.3 8.88-17.35 6.25-18.4 4.63-20.35 3-22.3 3-25.45L3-25.45Q3-28.45 4.58-30.78 6.15-33.1 9.08-34.38 12-35.65 15.85-35.65L15.85-35.65Q19.5-35.65 22.68-34.5 25.85-33.35 28.05-31.2L28.05-31.2 26.5-28.05Q24-30.2 21.43-31.18 18.85-32.15 15.85-32.15L15.85-32.15Q11.75-32.15 9.43-30.43 7.1-28.7 7.1-25.6L7.1-25.6Q7.1-22.95 9.15-21.6 11.2-20.25 15.35-19.3L15.35-19.3Q19.9-18.2 22.5-17.28 25.1-16.35 26.83-14.5 28.55-12.65 28.55-9.55L28.55-9.55Q28.55-6.55 26.98-4.3 25.4-2.05 22.45-0.83 19.5 0.4 15.55 0.4L15.55 0.4ZM56.8-11.5L62.95 0 58.45 0 52.45-11.3Q51.35-13.35 49.87-14.13 48.4-14.9 45.85-14.9L45.85-14.9 39.25-14.9 39.25 0 35.2 0 35.2-35.25 49.7-35.25Q55.45-35.25 58.47-32.7 61.5-30.15 61.5-25.2L61.5-25.2Q61.5-21.1 59.17-18.57 56.85-16.05 52.55-15.4L52.55-15.4Q53.9-15 54.92-14.05 55.95-13.1 56.8-11.5L56.8-11.5ZM39.25-18.3L49.35-18.3Q53.45-18.3 55.47-20 57.5-21.7 57.5-25.15L57.5-25.15Q57.5-28.55 55.5-30.2 53.5-31.85 49.35-31.85L49.35-31.85 39.25-31.85 39.25-18.3ZM73.55 0L69.5 0 69.5-35.25 91.3-35.25 91.3-31.8 73.55-31.8 73.55-19.65 90.3-19.65 90.3-16.2 73.55-16.2 73.55 0ZM111.94-18.35L124.44-18.35 124.44-2.05Q122.34-0.95 118.97-0.28 115.59 0.4 112.14 0.4L112.14 0.4Q106.89 0.4 103.09-1.75 99.29-3.9 97.27-7.95 95.24-12 95.24-17.65L95.24-17.65Q95.24-23.25 97.24-27.3 99.24-31.35 102.99-33.5 106.74-35.65 111.84-35.65L111.84-35.65Q115.54-35.65 118.64-34.52 121.74-33.4 123.94-31.2L123.94-31.2 122.39-28.05Q119.84-30.25 117.37-31.2 114.89-32.15 111.84-32.15L111.84-32.15Q105.89-32.15 102.69-28.4 99.49-24.65 99.49-17.65L99.49-17.65Q99.49-10.5 102.74-6.78 105.99-3.05 112.24-3.05L112.24-3.05Q116.79-3.05 120.69-4.4L120.69-4.4 120.69-15.15 111.94-15.15 111.94-18.35ZM154.34-11.5L160.49 0 155.99 0 149.99-11.3Q148.89-13.35 147.42-14.13 145.94-14.9 143.39-14.9L143.39-14.9 136.79-14.9 136.79 0 132.74 0 132.74-35.25 147.24-35.25Q152.99-35.25 156.02-32.7 159.04-30.15 159.04-25.2L159.04-25.2Q159.04-21.1 156.72-18.57 154.39-16.05 150.09-15.4L150.09-15.4Q151.44-15 152.47-14.05 153.49-13.1 154.34-11.5L154.34-11.5ZM136.79-18.3L146.89-18.3Q150.99-18.3 153.02-20 155.04-21.7 155.04-25.15L155.04-25.15Q155.04-28.55 153.04-30.2 151.04-31.85 146.89-31.85L146.89-31.85 136.79-31.85 136.79-18.3ZM181.54 0.4Q176.64 0.4 173.01-1.8 169.39-4 167.44-8.05 165.49-12.1 165.49-17.6L165.49-17.6Q165.49-23.15 167.41-27.23 169.34-31.3 172.96-33.48 176.59-35.65 181.54-35.65L181.54-35.65Q186.49-35.65 190.11-33.48 193.74-31.3 195.66-27.23 197.59-23.15 197.59-17.65L197.59-17.65Q197.59-12.15 195.64-8.08 193.69-4 190.06-1.8 186.44 0.4 181.54 0.4L181.54 0.4ZM181.54-3.1Q187.14-3.1 190.26-6.88 193.39-10.65 193.39-17.65L193.39-17.65Q193.39-24.65 190.29-28.4 187.19-32.15 181.54-32.15L181.54-32.15Q175.94-32.15 172.81-28.38 169.69-24.6 169.69-17.65L169.69-17.65Q169.69-10.7 172.81-6.9 175.94-3.1 181.54-3.1L181.54-3.1ZM218.74 0.4Q211.84 0.4 208.29-3.2 204.74-6.8 204.74-13.8L204.74-13.8 204.74-35.25 208.79-35.25 208.79-13.45Q208.79-8.3 211.31-5.7 213.84-3.1 218.74-3.1L218.74-3.1Q223.64-3.1 226.14-5.7 228.64-8.3 228.64-13.45L228.64-13.45 228.64-35.25 232.74-35.25 232.74-13.8Q232.74-6.85 229.16-3.23 225.59 0.4 218.74 0.4L218.74 0.4ZM241.18 0L241.18-35.25 255.13-35.25Q260.68-35.25 263.76-32.55 266.83-29.85 266.83-24.9L266.83-24.9Q266.83-19.95 263.73-17.2 260.63-14.45 255.13-14.45L255.13-14.45 245.28-14.45 245.28 0 241.18 0ZM245.28-17.85L254.73-17.85Q262.78-17.85 262.78-24.9L262.78-24.9Q262.78-31.85 254.73-31.85L254.73-31.85 245.28-31.85 245.28-17.85Z" opacity="1" transform="matrix(1,0,0,1,0,0)" fill="#3f3f40" class="undefined-text-0" data-fill-palette-color="primary" id="text-0"></path></svg></g></svg></g><g transform="matrix(1,0,0,1,0,53.306872443692995)"><svg viewBox="0 0 316.416 26.651797438185252" height="26.651797438185252" width="316.416"><g transform="matrix(1,0,0,1,0,0)"><svg width="316.416" viewBox="2.55 -33.5 403.65999999999997 34" height="26.651797438185252" data-palette-color="#9c27b0"><path d="M15.15 0.5L15.15 0.5Q11.4 0.5 8.55-1.05 5.7-2.6 4.13-5.53 2.55-8.45 2.55-12.5L2.55-12.5Q2.55-16.55 4.13-19.48 5.7-22.4 8.5-23.95 11.3-25.5 14.85-25.5L14.85-25.5Q18.5-25.5 21.05-24 23.6-22.5 24.95-19.9 26.3-17.3 26.3-14L26.3-14Q26.3-13.1 26.25-12.3 26.2-11.5 26.1-10.9L26.1-10.9 6-10.9 6-15 23.75-15 21.1-14.2Q21.1-17.6 19.4-19.43 17.7-21.25 14.75-21.25L14.75-21.25Q12.6-21.25 11-20.25 9.4-19.25 8.55-17.28 7.7-15.3 7.7-12.45L7.7-12.45Q7.7-9.65 8.6-7.7 9.5-5.75 11.15-4.75 12.8-3.75 15.05-3.75L15.05-3.75Q17.55-3.75 19.1-4.7 20.65-5.65 21.55-7.35L21.55-7.35 25.8-5.35Q24.9-3.55 23.38-2.23 21.85-0.9 19.75-0.2 17.65 0.5 15.15 0.5ZM70.33-10.45L75.43-8.75Q74.43-5.75 72.43-3.68 70.43-1.6 67.73-0.55 65.03 0.5 61.78 0.5L61.78 0.5Q57.03 0.5 53.53-1.55 50.03-3.6 48.13-7.4 46.23-11.2 46.23-16.5L46.23-16.5Q46.23-21.8 48.13-25.6 50.03-29.4 53.53-31.45 57.03-33.5 61.73-33.5L61.73-33.5Q64.98-33.5 67.6-32.6 70.23-31.7 72.08-29.9 73.93-28.1 74.93-25.4L74.93-25.4 69.88-23.15Q68.88-26.1 66.98-27.48 65.08-28.85 62.03-28.85L62.03-28.85Q58.98-28.85 56.68-27.4 54.38-25.95 53.1-23.2 51.83-20.45 51.83-16.5L51.83-16.5Q51.83-12.6 53.03-9.83 54.23-7.05 56.48-5.6 58.73-4.15 61.88-4.15L61.88-4.15Q64.93-4.15 67.15-5.73 69.38-7.3 70.33-10.45L70.33-10.45ZM106.65-25.5L106.65-25.5Q110.3-25.5 113.1-23.95 115.9-22.4 117.48-19.48 119.05-16.55 119.05-12.5L119.05-12.5Q119.05-8.45 117.48-5.53 115.9-2.6 113.1-1.05 110.3 0.5 106.65 0.5L106.65 0.5Q103 0.5 100.2-1.05 97.4-2.6 95.8-5.53 94.2-8.45 94.2-12.5L94.2-12.5Q94.2-16.55 95.8-19.48 97.4-22.4 100.2-23.95 103-25.5 106.65-25.5ZM106.65-21.3L106.65-21.3Q104.4-21.3 102.83-20.28 101.25-19.25 100.4-17.3 99.55-15.35 99.55-12.5L99.55-12.5Q99.55-9.7 100.4-7.73 101.25-5.75 102.83-4.73 104.4-3.7 106.65-3.7L106.65-3.7Q108.9-3.7 110.45-4.73 112-5.75 112.85-7.73 113.7-9.7 113.7-12.5L113.7-12.5Q113.7-15.35 112.85-17.3 112-19.25 110.45-20.28 108.9-21.3 106.65-21.3ZM145.43 0L140.08 0 140.08-25 144.83-25 145.08-20.8Q146.38-23.2 148.55-24.35 150.73-25.5 153.18-25.5L153.18-25.5Q155.88-25.5 158.15-24.28 160.43-23.05 161.58-20.6L161.58-20.6Q162.38-22.25 163.78-23.35 165.18-24.45 166.88-24.98 168.58-25.5 170.23-25.5L170.23-25.5Q172.63-25.5 174.73-24.5 176.83-23.5 178.13-21.45 179.43-19.4 179.43-16.2L179.43-16.2 179.43 0 174.08 0 174.08-15.35Q174.08-18.4 172.63-19.75 171.18-21.1 168.93-21.1L168.93-21.1Q167.18-21.1 165.7-20.25 164.23-19.4 163.33-17.73 162.43-16.05 162.43-13.6L162.43-13.6 162.43 0 157.08 0 157.08-15.35Q157.08-18.4 155.63-19.75 154.18-21.1 151.93-21.1L151.93-21.1Q150.43-21.1 148.93-20.3 147.43-19.5 146.43-17.8 145.43-16.1 145.43-13.3L145.43-13.3 145.43 0ZM207.15 0L201.8 0 201.8-25 206.55-25 206.8-20.8Q208.1-23.2 210.28-24.35 212.45-25.5 214.9-25.5L214.9-25.5Q217.6-25.5 219.88-24.28 222.15-23.05 223.3-20.6L223.3-20.6Q224.1-22.25 225.5-23.35 226.9-24.45 228.6-24.98 230.3-25.5 231.95-25.5L231.95-25.5Q234.35-25.5 236.45-24.5 238.55-23.5 239.85-21.45 241.15-19.4 241.15-16.2L241.15-16.2 241.15 0 235.8 0 235.8-15.35Q235.8-18.4 234.35-19.75 232.9-21.1 230.65-21.1L230.65-21.1Q228.9-21.1 227.43-20.25 225.95-19.4 225.05-17.73 224.15-16.05 224.15-13.6L224.15-13.6 224.15 0 218.8 0 218.8-15.35Q218.8-18.4 217.35-19.75 215.9-21.1 213.65-21.1L213.65-21.1Q212.15-21.1 210.65-20.3 209.15-19.5 208.15-17.8 207.15-16.1 207.15-13.3L207.15-13.3 207.15 0ZM274.53 0.5L274.53 0.5Q270.78 0.5 267.93-1.05 265.08-2.6 263.5-5.53 261.93-8.45 261.93-12.5L261.93-12.5Q261.93-16.55 263.5-19.48 265.08-22.4 267.88-23.95 270.68-25.5 274.23-25.5L274.23-25.5Q277.88-25.5 280.43-24 282.98-22.5 284.33-19.9 285.68-17.3 285.68-14L285.68-14Q285.68-13.1 285.63-12.3 285.58-11.5 285.48-10.9L285.48-10.9 265.38-10.9 265.38-15 283.13-15 280.48-14.2Q280.48-17.6 278.78-19.43 277.08-21.25 274.13-21.25L274.13-21.25Q271.98-21.25 270.38-20.25 268.78-19.25 267.93-17.28 267.08-15.3 267.08-12.45L267.08-12.45Q267.08-9.65 267.98-7.7 268.88-5.75 270.53-4.75 272.18-3.75 274.43-3.75L274.43-3.75Q276.93-3.75 278.48-4.7 280.03-5.65 280.93-7.35L280.93-7.35 285.18-5.35Q284.28-3.55 282.75-2.23 281.23-0.9 279.13-0.2 277.03 0.5 274.53 0.5ZM312.05 0L306.7 0 306.7-25 311.25-25 311.75-20.5Q312.75-22.95 314.73-24.23 316.7-25.5 319.6-25.5L319.6-25.5Q320.35-25.5 321.1-25.38 321.85-25.25 322.35-25L322.35-25 321.6-20.3Q321.05-20.5 320.38-20.63 319.7-20.75 318.55-20.75L318.55-20.75Q317-20.75 315.5-19.93 314-19.1 313.03-17.45 312.05-15.8 312.05-13.25L312.05-13.25 312.05 0ZM352.48-25.5L352.48-25.5Q355.48-25.5 357.6-24.63 359.73-23.75 361.18-22.15 362.63-20.55 363.38-18.5L363.38-18.5 358.33-16.5Q357.68-18.8 356.25-20.03 354.83-21.25 352.53-21.25L352.53-21.25Q350.28-21.25 348.68-20.23 347.08-19.2 346.25-17.25 345.43-15.3 345.43-12.45L345.43-12.45Q345.43-9.65 346.28-7.7 347.13-5.75 348.73-4.75 350.33-3.75 352.53-3.75L352.53-3.75Q354.23-3.75 355.48-4.33 356.73-4.9 357.55-5.98 358.38-7.05 358.68-8.6L358.68-8.6 363.53-6.95Q362.83-4.7 361.35-3.03 359.88-1.35 357.68-0.43 355.48 0.5 352.63 0.5L352.63 0.5Q348.93 0.5 346.08-1.05 343.23-2.6 341.65-5.53 340.08-8.45 340.08-12.5L340.08-12.5Q340.08-16.55 341.65-19.48 343.23-22.4 346.05-23.95 348.88-25.5 352.48-25.5ZM395.06 0.5L395.06 0.5Q391.31 0.5 388.46-1.05 385.61-2.6 384.03-5.53 382.46-8.45 382.46-12.5L382.46-12.5Q382.46-16.55 384.03-19.48 385.61-22.4 388.41-23.95 391.21-25.5 394.76-25.5L394.76-25.5Q398.41-25.5 400.96-24 403.51-22.5 404.86-19.9 406.21-17.3 406.21-14L406.21-14Q406.21-13.1 406.16-12.3 406.11-11.5 406.01-10.9L406.01-10.9 385.91-10.9 385.91-15 403.66-15 401.01-14.2Q401.01-17.6 399.31-19.43 397.61-21.25 394.66-21.25L394.66-21.25Q392.51-21.25 390.91-20.25 389.31-19.25 388.46-17.28 387.61-15.3 387.61-12.45L387.61-12.45Q387.61-9.65 388.51-7.7 389.41-5.75 391.06-4.75 392.71-3.75 394.96-3.75L394.96-3.75Q397.46-3.75 399.01-4.7 400.56-5.65 401.46-7.35L401.46-7.35 405.71-5.35Q404.81-3.55 403.28-2.23 401.76-0.9 399.66-0.2 397.56 0.5 395.06 0.5Z" opacity="1" transform="matrix(1,0,0,1,0,0)" fill="#9c27b0" class="undefined-text-1" data-fill-palette-color="secondary" id="text-1"></path></svg></g></svg></g></svg></g></svg></g><g></g></svg></g></svg></g></svg></g></svg><rect width="395.52" height="247.2" fill="none" stroke="none" visibility="hidden"></rect></g></svg></g></svg>