<?xml version="1.0" encoding="utf-8"?>
<!-- Generator: Adobe Illustrator 16.0.0, SVG Export Plug-In . SVG Version: 6.00 Build 0)  -->
<!DOCTYPE svg PUBLIC "-//W3C//DTD SVG 1.1//EN" "http://www.w3.org/Graphics/SVG/1.1/DTD/svg11.dtd">
<svg version="1.1" id="artwork" xmlns="http://www.w3.org/2000/svg" xmlns:xlink="http://www.w3.org/1999/xlink" x="0px" y="0px"
	 width="100%" height="100%" viewBox="0 0 135 40" enable-background="new 0 0 135 40" xml:space="preserve">
<g>
	<rect x="-10" y="-10" fill="#FFFFFF" fill-opacity="0" width="155" height="60"/>
	<g>
		<path d="M130,40H5c-2.75,0-5-2.25-5-5V5c0-2.75,2.25-5,5-5h125c2.75,0,5,2.25,5,5v30C135,37.75,132.75,40,130,40z"/>
	</g>
	<g>
		<g>
			<path fill="#A6A6A6" d="M130,0.8c2.316,0,4.2,1.884,4.2,4.2v30c0,2.316-1.884,4.2-4.2,4.2H5c-2.316,0-4.2-1.884-4.2-4.2V5
				c0-2.316,1.884-4.2,4.2-4.2H130 M130,0H5C2.25,0,0,2.25,0,5v30c0,2.75,2.25,5,5,5h125c2.75,0,5-2.25,5-5V5
				C135,2.25,132.75,0,130,0L130,0z"/>
		</g>
	</g>
	<path fill="#FFFFFF" d="M68.136,21.751c-2.352,0-4.269,1.789-4.269,4.253c0,2.449,1.917,4.253,4.269,4.253
		c2.353,0,4.27-1.804,4.27-4.253C72.405,23.54,70.488,21.751,68.136,21.751z M68.136,28.583c-1.289,0-2.4-1.063-2.4-2.578
		c0-1.531,1.112-2.578,2.4-2.578c1.289,0,2.4,1.047,2.4,2.578C70.536,27.519,69.425,28.583,68.136,28.583z M58.822,21.751
		c-2.352,0-4.269,1.789-4.269,4.253c0,2.449,1.917,4.253,4.269,4.253c2.353,0,4.27-1.804,4.27-4.253
		C63.092,23.54,61.175,21.751,58.822,21.751z M58.822,28.583c-1.289,0-2.4-1.063-2.4-2.578c0-1.531,1.112-2.578,2.4-2.578
		c1.289,0,2.4,1.047,2.4,2.578C61.223,27.519,60.111,28.583,58.822,28.583z M47.744,23.057v1.804h4.318
		c-0.129,1.015-0.467,1.756-0.983,2.271c-0.628,0.628-1.611,1.321-3.335,1.321c-2.658,0-4.736-2.143-4.736-4.801
		s2.078-4.801,4.736-4.801c1.434,0,2.481,0.564,3.254,1.289l1.273-1.273c-1.08-1.031-2.513-1.82-4.527-1.82
		c-3.641,0-6.702,2.964-6.702,6.605c0,3.641,3.061,6.605,6.702,6.605c1.965,0,3.448-0.645,4.607-1.853
		c1.192-1.192,1.563-2.868,1.563-4.221c0-0.418-0.032-0.805-0.097-1.127H47.744z M93.052,24.458
		c-0.354-0.95-1.434-2.707-3.641-2.707c-2.191,0-4.012,1.724-4.012,4.253c0,2.384,1.805,4.253,4.221,4.253
		c1.949,0,3.077-1.192,3.545-1.885l-1.45-0.967c-0.483,0.709-1.144,1.176-2.095,1.176c-0.95,0-1.627-0.435-2.062-1.289l5.687-2.352
		L93.052,24.458z M87.252,25.876c-0.048-1.644,1.273-2.481,2.224-2.481c0.741,0,1.369,0.371,1.579,0.902L87.252,25.876z M82.629,30
		h1.868V17.499h-1.868V30z M79.567,22.702h-0.064c-0.419-0.5-1.225-0.951-2.239-0.951c-2.127,0-4.076,1.869-4.076,4.27
		c0,2.384,1.949,4.237,4.076,4.237c1.015,0,1.82-0.451,2.239-0.966h0.064v0.612c0,1.627-0.87,2.497-2.271,2.497
		c-1.144,0-1.853-0.821-2.143-1.514l-1.627,0.677c0.467,1.127,1.707,2.513,3.77,2.513c2.191,0,4.044-1.289,4.044-4.431v-7.636
		h-1.772V22.702z M77.425,28.583c-1.289,0-2.368-1.08-2.368-2.562c0-1.499,1.079-2.594,2.368-2.594c1.272,0,2.271,1.095,2.271,2.594
		C79.696,27.503,78.697,28.583,77.425,28.583z M101.806,17.499h-4.471V30H99.2v-4.736h2.605c2.068,0,4.102-1.497,4.102-3.882
		S103.874,17.499,101.806,17.499z M101.854,23.524H99.2v-4.285h2.654c1.395,0,2.187,1.155,2.187,2.143
		C104.041,22.35,103.249,23.524,101.854,23.524z M113.386,21.729c-1.351,0-2.75,0.595-3.329,1.914l1.656,0.691
		c0.354-0.691,1.014-0.917,1.705-0.917c0.965,0,1.946,0.579,1.962,1.608v0.129c-0.338-0.193-1.062-0.482-1.946-0.482
		c-1.785,0-3.603,0.981-3.603,2.814c0,1.673,1.464,2.75,3.104,2.75c1.254,0,1.946-0.563,2.38-1.223h0.064v0.965h1.802v-4.793
		C117.182,22.967,115.524,21.729,113.386,21.729z M113.16,28.58c-0.61,0-1.463-0.306-1.463-1.062c0-0.965,1.062-1.335,1.979-1.335
		c0.819,0,1.206,0.177,1.704,0.418C115.235,27.76,114.238,28.58,113.16,28.58z M123.743,22.002l-2.139,5.42h-0.064l-2.22-5.42h-2.01
		l3.329,7.575l-1.898,4.214h1.946l5.131-11.789H123.743z M106.937,30h1.865V17.499h-1.865V30z"/>
	<g>
		
			<linearGradient id="SVGID_1_" gradientUnits="userSpaceOnUse" x1="21.8008" y1="173.291" x2="5.0188" y2="156.509" gradientTransform="matrix(1 0 0 -1 0 182)">
			<stop  offset="0" style="stop-color:#00A0FF"/>
			<stop  offset="0.0066" style="stop-color:#00A1FF"/>
			<stop  offset="0.2601" style="stop-color:#00BEFF"/>
			<stop  offset="0.5122" style="stop-color:#00D2FF"/>
			<stop  offset="0.7604" style="stop-color:#00DFFF"/>
			<stop  offset="1" style="stop-color:#00E3FF"/>
		</linearGradient>
		<path fill="url(#SVGID_1_)" d="M10.436,7.538c-0.291,0.308-0.463,0.786-0.463,1.405v22.116c0,0.62,0.172,1.097,0.463,1.405
			l0.074,0.072l12.389-12.389v-0.146v-0.146L10.509,7.465L10.436,7.538z"/>
		
			<linearGradient id="SVGID_2_" gradientUnits="userSpaceOnUse" x1="33.8335" y1="161.999" x2="9.6376" y2="161.999" gradientTransform="matrix(1 0 0 -1 0 182)">
			<stop  offset="0" style="stop-color:#FFE000"/>
			<stop  offset="0.4087" style="stop-color:#FFBD00"/>
			<stop  offset="0.7754" style="stop-color:#FFA500"/>
			<stop  offset="1" style="stop-color:#FF9C00"/>
		</linearGradient>
		<path fill="url(#SVGID_2_)" d="M27.028,24.278l-4.129-4.131v-0.146v-0.146l4.13-4.13l0.093,0.053l4.893,2.78
			c1.397,0.794,1.397,2.093,0,2.888l-4.893,2.78L27.028,24.278z"/>
		
			<linearGradient id="SVGID_3_" gradientUnits="userSpaceOnUse" x1="24.8281" y1="159.7051" x2="2.0696" y2="136.9466" gradientTransform="matrix(1 0 0 -1 0 182)">
			<stop  offset="0" style="stop-color:#FF3A44"/>
			<stop  offset="1" style="stop-color:#C31162"/>
		</linearGradient>
		<path fill="url(#SVGID_3_)" d="M27.122,24.225l-4.224-4.224L10.436,32.464c0.46,0.488,1.221,0.548,2.078,0.062L27.122,24.225"/>
		
			<linearGradient id="SVGID_4_" gradientUnits="userSpaceOnUse" x1="7.2974" y1="181.8232" x2="17.4597" y2="171.6609" gradientTransform="matrix(1 0 0 -1 0 182)">
			<stop  offset="0" style="stop-color:#32A071"/>
			<stop  offset="0.0685" style="stop-color:#2DA771"/>
			<stop  offset="0.4762" style="stop-color:#15CF74"/>
			<stop  offset="0.8009" style="stop-color:#06E775"/>
			<stop  offset="1" style="stop-color:#00F076"/>
		</linearGradient>
		<path fill="url(#SVGID_4_)" d="M27.122,15.777l-14.608-8.3c-0.857-0.487-1.618-0.426-2.078,0.062l12.463,12.463L27.122,15.777z"/>
		<g>
			<path opacity="0.2" enable-background="new    " d="M27.029,24.132l-14.515,8.248c-0.812,0.461-1.538,0.43-2.004,0.011l0,0
				l-0.074,0.074l0,0l0.074,0.072l0,0c0.466,0.42,1.192,0.451,2.004-0.011l14.608-8.3L27.029,24.132z"/>
			<path opacity="0.12" enable-background="new    " d="M10.436,32.318c-0.291-0.308-0.463-0.786-0.463-1.405v0.146
				c0,0.619,0.172,1.097,0.463,1.405l0.074-0.074L10.436,32.318z"/>
		</g>
		<path opacity="0.12" enable-background="new    " d="M32.015,21.299l-4.986,2.833l0.093,0.093l4.893-2.78
			c0.699-0.397,1.048-0.92,1.048-1.443l0,0C33.004,20.475,32.648,20.938,32.015,21.299z"/>
		<path opacity="0.25" fill="#FFFFFF" enable-background="new    " d="M12.514,7.623l19.501,11.08
			c0.634,0.36,0.989,0.824,1.048,1.298l0,0c0-0.523-0.349-1.047-1.048-1.444L12.514,7.477c-1.398-0.794-2.541-0.134-2.541,1.466
			v0.146C9.973,7.489,11.116,6.829,12.514,7.623z"/>
	</g>
</g>
<g>
	<path fill="#FFFFFF" stroke="#FFFFFF" stroke-width="0.2" stroke-miterlimit="10" d="M41.278,13V7h1.835
		c0.922,0,1.659,0.278,2.213,0.834C45.879,8.39,46.155,9.111,46.155,10c0,0.888-0.276,1.61-0.829,2.166
		C44.772,12.722,44.035,13,43.113,13H41.278z M42.049,12.263h1.064c0.692,0,1.241-0.198,1.646-0.595
		c0.405-0.396,0.607-0.953,0.607-1.667c0-0.709-0.202-1.264-0.607-1.664c-0.405-0.399-0.954-0.599-1.646-0.599h-1.064V12.263z"/>
	<path fill="#FFFFFF" stroke="#FFFFFF" stroke-width="0.2" stroke-miterlimit="10" d="M47.237,13V7h0.771v6H47.237z"/>
	<path fill="#FFFFFF" stroke="#FFFFFF" stroke-width="0.2" stroke-miterlimit="10" d="M51.074,13.134
		c-0.436,0-0.861-0.142-1.277-0.427c-0.417-0.285-0.689-0.685-0.817-1.199l0.704-0.285c0.084,0.33,0.255,0.607,0.515,0.833
		c0.261,0.226,0.552,0.339,0.876,0.339c0.335,0,0.622-0.088,0.859-0.264s0.355-0.415,0.355-0.717c0-0.335-0.118-0.593-0.355-0.775
		s-0.613-0.351-1.127-0.507C50.275,9.967,49.873,9.75,49.6,9.484c-0.273-0.265-0.411-0.604-0.411-1.018
		c0-0.43,0.171-0.804,0.512-1.123s0.785-0.478,1.332-0.478c0.509,0,0.922,0.127,1.24,0.381c0.318,0.254,0.525,0.532,0.62,0.834
		l-0.703,0.293c-0.051-0.189-0.175-0.366-0.373-0.528c-0.198-0.162-0.454-0.243-0.768-0.243c-0.296,0-0.549,0.082-0.758,0.247
		c-0.21,0.165-0.314,0.37-0.314,0.616c0,0.224,0.097,0.412,0.289,0.566c0.193,0.153,0.477,0.292,0.851,0.415
		c0.296,0.095,0.543,0.187,0.742,0.277c0.198,0.089,0.399,0.208,0.603,0.356c0.204,0.148,0.357,0.333,0.461,0.553
		s0.155,0.476,0.155,0.767s-0.06,0.55-0.18,0.779c-0.12,0.229-0.28,0.411-0.479,0.545c-0.198,0.134-0.411,0.236-0.641,0.306
		S51.314,13.134,51.074,13.134z"/>
	<path fill="#FFFFFF" stroke="#FFFFFF" stroke-width="0.2" stroke-miterlimit="10" d="M54.954,13h-0.771V7h2.045
		c0.508,0,0.948,0.169,1.319,0.507c0.372,0.338,0.558,0.764,0.558,1.278c0,0.514-0.186,0.939-0.558,1.277
		c-0.371,0.338-0.812,0.507-1.319,0.507h-1.274V13z M54.954,9.832h1.291c0.324,0,0.584-0.108,0.779-0.326
		c0.195-0.218,0.293-0.458,0.293-0.721s-0.098-0.503-0.293-0.721c-0.195-0.218-0.455-0.327-0.779-0.327h-1.291V9.832z"/>
	<path fill="#FFFFFF" stroke="#FFFFFF" stroke-width="0.2" stroke-miterlimit="10" d="M63.983,12.225
		c-0.59,0.606-1.323,0.909-2.2,0.909s-1.61-0.303-2.199-0.909C58.994,11.619,58.7,10.877,58.7,10s0.294-1.619,0.884-2.225
		c0.589-0.606,1.322-0.91,2.199-0.91c0.872,0,1.604,0.305,2.196,0.914c0.592,0.609,0.888,1.349,0.888,2.221
		C64.867,10.877,64.572,11.619,63.983,12.225z M60.153,11.722c0.444,0.45,0.987,0.674,1.63,0.674s1.187-0.225,1.63-0.674
		c0.444-0.45,0.667-1.024,0.667-1.722s-0.223-1.272-0.667-1.722c-0.443-0.45-0.987-0.674-1.63-0.674s-1.186,0.225-1.63,0.674
		C59.71,8.728,59.487,9.302,59.487,10S59.71,11.272,60.153,11.722z"/>
	<path fill="#FFFFFF" stroke="#FFFFFF" stroke-width="0.2" stroke-miterlimit="10" d="M65.949,13V7h0.938l2.916,4.667h0.033
		l-0.033-1.156V7h0.771v6h-0.805L66.72,8.106h-0.033l0.033,1.156V13H65.949z"/>
	<path fill="#FFFFFF" stroke="#FFFFFF" stroke-width="0.2" stroke-miterlimit="10" d="M71.949,13V7h0.771v6H71.949z"/>
	<path fill="#FFFFFF" stroke="#FFFFFF" stroke-width="0.2" stroke-miterlimit="10" d="M74.094,13V7h2.17
		c0.47,0,0.876,0.155,1.22,0.465c0.344,0.311,0.516,0.7,0.516,1.169c0,0.285-0.074,0.537-0.223,0.754
		c-0.147,0.218-0.345,0.383-0.591,0.495v0.033c0.296,0.101,0.539,0.274,0.729,0.52c0.189,0.246,0.285,0.531,0.285,0.855
		c0,0.492-0.181,0.899-0.541,1.223C77.299,12.838,76.873,13,76.381,13H74.094z M74.864,9.572h1.399c0.291,0,0.524-0.096,0.7-0.289
		c0.176-0.192,0.264-0.403,0.264-0.632s-0.085-0.439-0.256-0.628c-0.17-0.19-0.395-0.285-0.674-0.285h-1.434V9.572z M74.864,12.263
		h1.551c0.296,0,0.536-0.104,0.721-0.311c0.185-0.206,0.276-0.433,0.276-0.679c0-0.246-0.095-0.47-0.285-0.674
		c-0.189-0.204-0.438-0.306-0.746-0.306h-1.517V12.263z"/>
	<path fill="#FFFFFF" stroke="#FFFFFF" stroke-width="0.2" stroke-miterlimit="10" d="M79.239,13V7h0.771v5.263h2.598V13H79.239z"/>
	<path fill="#FFFFFF" stroke="#FFFFFF" stroke-width="0.2" stroke-miterlimit="10" d="M87.083,7.737h-2.732V9.64h2.464v0.721h-2.464
		v1.902h2.732V13H83.58V7h3.503V7.737z"/>
	<path fill="#FFFFFF" stroke="#FFFFFF" stroke-width="0.2" stroke-miterlimit="10" d="M91.742,13.134
		c-0.436,0-0.861-0.142-1.277-0.427c-0.417-0.285-0.689-0.685-0.817-1.199l0.704-0.285c0.084,0.33,0.255,0.607,0.515,0.833
		c0.261,0.226,0.552,0.339,0.876,0.339c0.335,0,0.622-0.088,0.859-0.264s0.355-0.415,0.355-0.717c0-0.335-0.118-0.593-0.355-0.775
		s-0.613-0.351-1.127-0.507c-0.531-0.167-0.934-0.384-1.207-0.649c-0.273-0.265-0.411-0.604-0.411-1.018
		c0-0.43,0.171-0.804,0.512-1.123s0.785-0.478,1.332-0.478c0.509,0,0.922,0.127,1.24,0.381c0.318,0.254,0.525,0.532,0.62,0.834
		l-0.703,0.293c-0.051-0.189-0.175-0.366-0.373-0.528c-0.198-0.162-0.454-0.243-0.768-0.243c-0.296,0-0.549,0.082-0.758,0.247
		c-0.21,0.165-0.314,0.37-0.314,0.616c0,0.224,0.097,0.412,0.289,0.566c0.193,0.153,0.477,0.292,0.851,0.415
		c0.296,0.095,0.543,0.187,0.742,0.277c0.198,0.089,0.399,0.208,0.603,0.356c0.204,0.148,0.357,0.333,0.461,0.553
		s0.155,0.476,0.155,0.767s-0.06,0.55-0.18,0.779c-0.12,0.229-0.28,0.411-0.479,0.545c-0.198,0.134-0.411,0.236-0.641,0.306
		S91.982,13.134,91.742,13.134z"/>
	<path fill="#FFFFFF" stroke="#FFFFFF" stroke-width="0.2" stroke-miterlimit="10" d="M96.938,13.134
		c-0.66,0-1.194-0.218-1.605-0.653c-0.41-0.436-0.615-1.006-0.615-1.709V7h0.771v3.805c0,0.475,0.124,0.858,0.373,1.152
		c0.248,0.293,0.607,0.439,1.077,0.439c0.469,0,0.828-0.146,1.076-0.439c0.249-0.294,0.373-0.678,0.373-1.152V7h0.771v3.771
		c0,0.709-0.2,1.281-0.6,1.713C98.159,12.918,97.618,13.134,96.938,13.134z"/>
	<path fill="#FFFFFF" stroke="#FFFFFF" stroke-width="0.2" stroke-miterlimit="10" d="M100.398,13V7h2.045
		c0.508,0,0.948,0.169,1.319,0.507c0.372,0.338,0.558,0.764,0.558,1.278c0,0.419-0.137,0.789-0.411,1.11
		c-0.273,0.321-0.614,0.523-1.022,0.607l-0.017,0.025l1.685,2.439V13h-0.913l-1.617-2.43h-0.855V13H100.398z M101.169,9.849h1.24
		c0.308,0,0.571-0.101,0.792-0.302c0.221-0.201,0.331-0.455,0.331-0.762c0-0.263-0.098-0.503-0.293-0.721
		c-0.195-0.218-0.455-0.327-0.779-0.327h-1.291V9.849z"/>
</g>
</svg>
